<?xml version="1.0" standalone="no"?>
<!DOCTYPE svg PUBLIC "-//W3C//DTD SVG 20010904//EN"
 "http://www.w3.org/TR/2001/REC-SVG-20010904/DTD/svg10.dtd">
<svg version="1.0" xmlns="http://www.w3.org/2000/svg"
 width="111.000000pt" height="105.000000pt" viewBox="0 0 111.000000 105.000000"
 preserveAspectRatio="xMidYMid meet">

<g transform="translate(0.000000,105.000000) scale(0.100000,-0.100000)"
fill="#000000" stroke="none">
<path d="M269 807 c-174 -152 -255 -229 -257 -245 -5 -32 23 -60 70 -73 27 -7
42 -18 48 -35 6 -14 10 -114 10 -223 0 -172 2 -200 17 -212 11 -10 53 -15 135
-17 l118 -4 0 162 c0 92 4 170 10 181 10 17 22 19 130 19 108 0 120 -2 130
-19 6 -11 10 -89 10 -181 l0 -162 116 4 c101 3 117 6 130 22 11 16 14 63 14
221 0 223 5 245 59 245 41 0 83 36 79 69 -4 37 -500 471 -539 471 -20 0 -86
-52 -280 -223z"/>
</g>
</svg>
